<svg width="16" height="17" viewBox="0 0 16 17" fill="none" xmlns="http://www.w3.org/2000/svg">
<mask id="path-1-inside-1_189_352" fill="white">
<path d="M14.1851 8.50001C14.451 8.50001 14.6685 8.2841 14.6493 8.01881C14.5782 7.03677 14.2903 6.08053 13.8039 5.21988C13.2383 4.21917 12.4236 3.38169 11.4389 2.78875C10.4541 2.19581 9.33282 1.86757 8.18379 1.83588C7.19557 1.80862 6.21573 2.00152 5.31454 2.39814C5.0711 2.50529 4.98199 2.79846 5.10643 3.03354C5.23086 3.26862 5.52166 3.35627 5.76639 3.2521C6.5197 2.93147 7.33508 2.77604 8.15723 2.79871C9.14026 2.82582 10.0996 3.10664 10.942 3.61391C11.7845 4.12118 12.4815 4.83766 12.9653 5.69379C13.37 6.40982 13.6141 7.20318 13.6831 8.01897C13.7056 8.284 13.9191 8.50001 14.1851 8.50001Z"/>
</mask>
<path d="M14.1851 8.50001C14.451 8.50001 14.6685 8.2841 14.6493 8.01881C14.5782 7.03677 14.2903 6.08053 13.8039 5.21988C13.2383 4.21917 12.4236 3.38169 11.4389 2.78875C10.4541 2.19581 9.33282 1.86757 8.18379 1.83588C7.19557 1.80862 6.21573 2.00152 5.31454 2.39814C5.0711 2.50529 4.98199 2.79846 5.10643 3.03354C5.23086 3.26862 5.52166 3.35627 5.76639 3.2521C6.5197 2.93147 7.33508 2.77604 8.15723 2.79871C9.14026 2.82582 10.0996 3.10664 10.942 3.61391C11.7845 4.12118 12.4815 4.83766 12.9653 5.69379C13.37 6.40982 13.6141 7.20318 13.6831 8.01897C13.7056 8.284 13.9191 8.50001 14.1851 8.50001Z" stroke="#00529C" stroke-width="3" mask="url(#path-1-inside-1_189_352)"/>
</svg>
